<?xml version="1.0" encoding="utf-8"?>
<!-- Generator: Adobe Illustrator 24.0.1, SVG Export Plug-In . SVG Version: 6.00 Build 0)  -->
<svg version="1.1" xmlns="http://www.w3.org/2000/svg" xmlns:xlink="http://www.w3.org/1999/xlink" x="0px" y="0px"
	 viewBox="0 0 1160 772" style="enable-background:new 0 0 1160 772;" xml:space="preserve">
<style type="text/css">
	.st0{fill:#FFFDF5;}
	.st1{fill:#ABCDDD;}
	.st2{fill:#EFE3D5;}
	.st3{fill:#144A56;}
	.st4{fill:#333333;}
	.st5{fill:#87AEC1;}
	.st6{fill:#113542;}
	.st7{fill:#5D7A7F;}
	.st8{fill:#DAE7E8;}
	.st9{opacity:0.1;}
	.st10{fill:#C7B299;}
	.st11{fill:#CEBBA7;}
	.st12{opacity:0.2;}
	.st13{opacity:0.19;}
	.st14{fill:#97BCD3;}
	.st15{fill:#9EC5D8;}
	.st16{opacity:0.12;}
	.st17{fill:#BA656D;}
	.st18{fill:#FFFFFF;}
	.st19{opacity:0.13;}
</style>
<g id="Background">
	<rect y="0" class="st0" width="1160" height="772"/>
</g>
<g id="object">
	<g>
		<g>
			<path class="st1" d="M590.04,254.87c-0.04,0-5.46,1.3-8.56,3.61c-6.74,5.03-23.06,17.66-36.91,28.13c-1.93,1.46-2.68,4-1.85,6.27
				c0.99,2.74,1.87,5.18,2.89,7.81c1.14,2.93,4.51,4.3,7.38,3.01l43.2-19.39c5.53-2.61,8.94-8.34,8.48-14.43
				C604.12,262.64,598.83,255.11,590.04,254.87z"/>
		</g>
		<g>
			<g>
				<path class="st1" d="M562.36,288.23c-0.01-0.02-2.43-3.01-4.78-4.24c-13.75-7.22-44.73-23.32-44.73-23.32l-6.01,9.84
					l39.06,30.28c3.26,2.66,7.83,3.08,11.48,0.98C561.72,299.28,564.83,293.76,562.36,288.23z"/>
				<path class="st2" d="M513.62,261.58c0,0-0.5-2.2-1.06-2.49c-0.56-0.29-4.01-3.43-5.92-3.1c-1.9,0.33-3.68,3.99-4.95,5.76
					c-1.27,1.78-1.25,1.59-1.01,3.86c0.24,2.27,3.43,5.43,5.66,6.27C508.59,272.71,514.7,262.66,513.62,261.58z"/>
			</g>
		</g>
	</g>
	<g>
		<rect x="505.97" y="170.65" class="st3" width="3.84" height="114.84"/>
		<path class="st4" d="M505.61,278.84v6.28c0,2.37-0.91,4.68-2.61,6.21c-5.46,4.91-9.59-0.34-11.29-3.21
			c-0.52-0.88-1.58-1.18-2.43-0.67l-0.03,0.02c-0.9,0.54-1.21,1.79-0.65,2.72c7.19,11.85,16.66,6.61,19.55,1.9
			c1.17-1.9,1.98-4.22,1.98-6.49v-6.75c0-0.25-0.19-0.45-0.42-0.45h-3.68C505.8,278.39,505.61,278.59,505.61,278.84z"/>
	</g>
	<g>
		<polygon class="st3" points="580.77,513.98 559.51,501 554.29,501 578.95,517.78 		"/>
		<path class="st3" d="M563.54,501.63l-17.87,1.66c-2.28,0.21-4.26-1.1-4.43-2.94l-0.01-0.07c-0.17-1.83,1.54-3.49,3.81-3.7
			l17.87-1.66c2.28-0.21,4.26,1.1,4.43,2.94l0.01,0.07C567.52,499.76,565.82,501.42,563.54,501.63z"/>
	</g>
	<path class="st5" d="M581.46,345.05l-43.5,77.96c-2.89,7.21-0.03,15.44,6.71,19.29l0.22,0.13c5.92,3.38,13.34,2.52,18.33-2.13
		l61.46-57.36L581.46,345.05z"/>
	<g>
		<polygon class="st6" points="548.69,484.03 549.28,489.02 535.97,495.95 536.76,501 566.43,495.96 564.32,483.76 549.59,484.41 		
			"/>
		<path class="st5" d="M567.46,435.12l-2.5,49.97l-15.94,3.23l-11.68-50.57c-2.27-9.83,5.55-19.07,15.62-18.46l0.35,0.02
			C561.56,419.81,567.87,426.86,567.46,435.12z"/>
	</g>
	<g>
		<g>
			<g>
				<g>
					<rect x="582.69" y="470.37" class="st7" width="2.1" height="98.18"/>
				</g>
				<g>
					
						<rect x="582.71" y="470.58" transform="matrix(0.0246 -0.9997 0.9997 0.0246 49.8824 1090.4706)" class="st7" width="2.1" height="98.18"/>
				</g>
				<g>
					
						<rect x="534.63" y="519.03" transform="matrix(0.6635 -0.7481 0.7481 0.6635 -192.6941 611.6938)" class="st7" width="98.18" height="2.1"/>
				</g>
				<g>
					
						<rect x="581.09" y="469.52" transform="matrix(0.7227 -0.6912 0.6912 0.7227 -197.0126 546.183)" class="st7" width="2.1" height="98.18"/>
				</g>
			</g>
			<g>
				<g>
					<path class="st3" d="M583.75,576.86c-32.18,0-58.36-26.18-58.36-58.36c0-32.18,26.18-58.36,58.36-58.36
						c32.18,0,58.36,26.18,58.36,58.36C642.11,550.67,615.93,576.86,583.75,576.86z M583.75,472.9c-25.14,0-45.6,20.45-45.6,45.6
						c0,25.14,20.45,45.6,45.6,45.6c25.14,0,45.6-20.45,45.6-45.6C629.34,493.35,608.89,472.9,583.75,472.9z"/>
				</g>
				<g>
					<path class="st6" d="M590.2,518.49c0,3.57-2.89,6.46-6.46,6.46s-6.46-2.89-6.46-6.46s2.89-6.46,6.46-6.46
						S590.2,514.93,590.2,518.49z"/>
				</g>
			</g>
		</g>
		<circle class="st8" cx="583.75" cy="518.49" r="2.98"/>
	</g>
	<rect x="584.21" y="371.96" class="st7" width="6.03" height="95.26"/>
	<path class="st6" d="M582.95,392.93c0,0-4.31,2.76,7.4,4.86c11.71,2.1,49.7,1.13,49.7,1.13s20.32-10.31,7.9-21.1
		c-12.41-10.78-11.98-2.69-23.16,1.3C613.61,383.12,586.08,386.5,582.95,392.93z"/>
	<g class="st9">
		<polygon class="st10" points="196.44,449.61 190.22,511.3 155.48,559.05 136.15,632.55 101.59,685.73 93.55,772 0,772 0,475.13 		
			"/>
		<polygon class="st11" points="0,426.22 187.55,436.84 196.44,449.61 43.9,499.6 0,492.84 		"/>
		<polygon class="st12" points="112.63,479.39 101.59,685.73 114.78,653.82 125.09,529.2 		"/>
		<polygon class="st12" points="155.48,559.05 159.82,479.39 168.55,541.08 		"/>
		<polygon class="st12" points="87.8,772 71.11,655.26 54.56,672.28 38.22,545.59 0,630.42 0,772 		"/>
	</g>
	<g class="st13">
		<polygon class="st10" points="894.89,591.4 903.23,625.95 949.8,652.7 975.73,693.88 1022.06,723.67 1032.83,772 1158.26,772 
			1158.26,605.7 		"/>
		<polygon class="st11" points="1158.26,578.29 906.81,584.24 894.89,591.4 1099.4,619.4 1158.26,615.62 		"/>
		<polygon class="st12" points="1007.25,608.08 1022.06,723.67 1004.37,705.8 990.55,635.98 		"/>
		<polygon class="st12" points="949.8,652.7 943.99,608.08 932.28,642.64 		"/>
		<polygon class="st12" points="1040.55,772 1062.92,706.6 1085.12,716.14 1107.01,645.16 1158.26,692.69 1158.26,772 		"/>
	</g>
	<path class="st14" d="M605.72,338.84c0,0,42.88,20.85,31.3,56.52c-7.74,23.83-18.84,52.25-27.61,67.65
		c-4.22,7.42-10.02,12.11-18.4,10.45l-0.43-0.09c-8.55-1.7-12.99-9.11-13.87-17.78l2.4-95.66L605.72,338.84z"/>
	<g>
		<g>
			
				<ellipse transform="matrix(0.9846 -0.1748 0.1748 0.9846 -27.7698 105.7793)" class="st2" cx="586.59" cy="210.53" rx="20.09" ry="26.53"/>
			<path class="st4" d="M606.02,197.93c0,0,4.3,18.26,2.11,22.07c-2.18,3.81-16.39,12.06-16.39,12.06l-2.98-16.79
				c0,0-24.11-1.09-25.66-2.38c-1.98-1.64-6.44-23.99-6.44-23.99S601.87,174.1,606.02,197.93z"/>
		</g>
	</g>
	<path class="st15" d="M554.92,381.58c0,0-2.94-106.36,2.93-118.64c5.87-12.28,18.99-25.09,36.31-26.02
		c17.33-0.93,38.12,20.56,40.64,26.96c2.52,6.41,11.49,116.97,11.49,116.97l-47.92,2.71l-11.68-0.05L554.92,381.58z"/>
	<g>
		<path class="st3" d="M609.98,540.72l-17.9,1.35c-2.28,0.17-4.24-1.18-4.38-3.01l-0.01-0.07c-0.14-1.84,1.6-3.46,3.87-3.64
			l17.9-1.35c2.28-0.17,4.24,1.18,4.38,3.01l0.01,0.07C613.99,538.92,612.25,540.55,609.98,540.72z"/>
		<path class="st3" d="M583.75,521.47l13.18,16.57l5.54-1.12l-14.55-15.34c-0.72-0.76-1.83-1.01-2.81-0.63L583.75,521.47z"/>
	</g>
	<g>
		<polygon class="st6" points="596.75,520.31 597.09,525.32 583.45,531.57 583.97,536.65 613.87,533.12 612.38,520.83 
			597.63,520.73 		"/>
		<path class="st14" d="M612.84,465.18l0.9,54.36l-17.05,4.65l-16.33-53.99c-3.17-10.49,4.64-21.08,15.6-21.14l0.39,0
			C605.34,449,612.69,456.19,612.84,465.18z"/>
	</g>
	<path class="st16" d="M578.52,383.85l46.73,44.36c0,0,8.13-22.03,10.31-28.4c4.33-12.67,3.45-18.55,3.45-18.55L578.52,383.85z"/>
	<g>
		<g>
			<g>
				<path class="st1" d="M598.56,264.4c-0.01,0.04,0.32,5.09,1.91,8.21c3.46,6.8,12.24,23.34,19.46,37.35
					c1,1.95,3.16,3.01,5.32,2.62c2.6-0.47,4.92-0.87,7.43-1.38c2.8-0.57,4.54-3.37,3.83-6.13l-10.67-41.63
					c-1.48-5.34-6.08-9.28-11.59-9.81C607.68,253.01,600.13,256.58,598.56,264.4z"/>
			</g>
			<g>
				<path class="st6" d="M637.02,373.02l-17.08-8.84l2.33-4.5c0.17-0.32,0.08-0.69-0.19-0.83l-17.46-9.03
					c-0.27-0.14-0.62,0.01-0.79,0.32l-2.33,4.5l-17.08-8.84c-0.39-0.2-0.86-0.05-1.06,0.34l-16.05,31.02
					c-0.2,0.39-0.05,0.86,0.34,1.06l52.59,27.22c0.39,0.2,0.86,0.05,1.06-0.34l16.05-31.02
					C637.56,373.7,637.41,373.22,637.02,373.02z M604.62,353.56c0.17-0.32,0.52-0.46,0.79-0.32l13.43,6.95
					c0.27,0.14,0.35,0.51,0.19,0.83l-1.1,2.12l-14.41-7.46L604.62,353.56z"/>
				<g>
					<g>
						<path class="st1" d="M619.72,299.88c-0.02,0.02-1.84,2.99-2.19,5.38c-2.02,13.95-6.43,45.33-6.43,45.33l10.23,2.16l14.1-42.58
							c1.29-3.59,0.27-7.63-2.63-10.12C629.37,297.09,623.7,296.1,619.72,299.88z"/>
						<path class="st2" d="M611.65,349.65c0,0-1.73,1.09-1.81,1.66c-0.08,0.57-1.72,4.47-0.86,6c0.86,1.53,4.52,1.94,6.43,2.49
							c1.91,0.55,1.74,0.59,3.6-0.3c1.87-0.89,3.61-4.57,3.65-6.74C622.7,350.59,612.25,348.4,611.65,349.65z"/>
					</g>
				</g>
			</g>
		</g>
	</g>
	<path class="st7" d="M1154.46,474.65c-132.63,44.55-269.81,74.98-408.76,91.29c-139.39,16.36-280.39,18.3-420.19,5.97
		c-111.46-9.83-221.44-29.81-330.08-56.31c-1.2-0.29-1.82,1.5-0.61,1.84c133.96,37.59,273.25,57.75,412.06,64.96
		c139.23,7.24,279.22,0.09,417.02-21.05c112.67-17.29,223.85-44.2,331.97-80.28C1159.86,479.74,1158.48,473.3,1154.46,474.65z"/>
	<g>
		<path class="st17" d="M443.53,178.22L443.53,178.22c5.68-8.34,17.93-11.65,32.44-11.65c13.66,0,25.35,3.47,31.41,10.85V75.27
			C499.64,80.51,443.63,119.93,443.53,178.22z"/>
		<path class="st17" d="M508.5,75.28V178.7c5.53-8.25,17.64-12.31,31.59-12.31c14.41,0,26.65,4.52,31.91,13.16
			c-0.04-0.08-0.06-0.15-0.06-0.15C571.8,121.16,516.14,80.58,508.5,75.28z"/>
		<path class="st17" d="M452.08,135.7c6.16-12.57,14.45-24.03,23.88-34.34c7.08-7.75,14.83-14.9,23.1-21.37
			c2.32-1.81,4.4-3.96,6.94-5.48c0.19-0.11,0.35-0.19,0.51-0.28C436,74.85,378.9,120.77,377.36,177.81c-0.01,0.48,0.6,0.7,0.89,0.31
			c5.87-7.74,17.84-10.86,31.92-11.19c22.88-0.53,32.2,10.9,32.2,10.9C442.19,162.22,445.23,149.69,452.08,135.7z"/>
		<path class="st17" d="M508.94,74.23c0.23,0.14,0.47,0.31,0.76,0.52c2.21,1.66,4.45,3.26,6.61,4.98
			c8.14,6.47,15.75,13.64,22.7,21.38c9.35,10.41,17.55,21.97,23.6,34.61c3.26,6.82,5.89,13.95,7.68,21.3
			c0.4,1.64,2.86,17.23,2.97,22.17c0,0.1-0.01,0.19-0.04,0.28c5.39-8.57,18-12.72,32.65-12.72c12.74,0,23.84,3.07,30.06,9.55
			c0.92,0.96,2.54,0.29,2.47-1.04C635.28,119.3,578.6,74.66,508.94,74.23z"/>
		<path class="st18" d="M508.94,73.62l-0.08,0l0.03-0.02l-1.1,0.01l-0.84-0.01l0.02,0.01l-0.46,0
			c-34.21,0.3-66.45,11.22-90.79,30.75c-24.35,19.55-38.17,45.6-38.92,73.37c-0.01,0.29,0.1,0.56,0.29,0.76
			c0.43,0.44,1.23,0.4,1.6-0.09c5.36-7.07,16.54-10.96,31.47-10.96c14.97,0,26.2,3.74,31.65,10.54c0.24,0.32,0.5,0.62,0.64,1
			c0.08,0.24,0.24,0.46,0.51,0.47c0.12,0.01,0.65-0.32,0.58-0.37l0.43-0.6c5.38-7.26,17.04-11.42,31.98-11.42
			c14.34,0,25.34,3.78,30.98,10.65c0.36,0.44,0.8,1.27,1.39,1.38c0.7,0.13,1.13-0.89,1.5-1.35c0.46-0.58,0.96-1.14,1.48-1.66
			c1.09-1.1,2.31-2.08,3.6-2.95c2.91-1.94,6.17-3.3,9.53-4.26c3.96-1.13,8.07-1.7,12.17-1.91c1.15-0.06,2.31-0.08,3.46-0.08
			c14.77,0,27.39,5.15,32.3,13.22h0.4l0,0c4.98-7.92,17.62-12.85,33.09-12.85c13.32,0,23.85,3.33,29.66,9.38
			c0.39,0.4,0.9,0.62,1.45,0.62c0.55,0,1.09-0.23,1.46-0.63c0.37-0.39,0.55-0.9,0.52-1.45C635.8,118.66,578.69,74.04,508.94,73.62z
			 M441.81,176.16l-0.01-0.02l0,0.1c-5.94-6.41-17.08-9.92-31.62-9.92c-15.18,0-26.62,3.99-32.24,11.25
			c0.8-27.36,14.46-53.04,38.49-72.33c23.66-18.99,54.87-29.78,88.07-30.47c-1.22,0.86-2.36,1.84-3.46,2.79
			c-0.76,0.66-1.53,1.31-2.32,1.93c-8.31,6.5-16.11,13.71-23.17,21.43c-10.13,11.08-18.2,22.68-23.97,34.47
			C444.81,149.23,441.85,161.52,441.81,176.16z M506.82,175.89c-6.09-6.42-16.96-9.93-30.85-9.93c-14.43,0-25.9,3.85-31.86,10.61
			c0.46-23.81,10.18-47.16,28.91-69.41c13.69-16.27,28.42-27.16,33.8-30.88V175.89z M507.82,74.14l0.04,0.02c-0.03,0-0.06,0-0.08,0
			L507.82,74.14z M540.08,165.77c-14.12,0-25.29,4.05-31.03,11.17V76.3c9.44,6.73,61.07,45.99,62.3,101.25
			C565.72,170.14,554.23,165.77,540.08,165.77z M637.63,175.87c-0.16,0.17-0.41,0.28-0.65,0.28c-0.17,0-0.42-0.05-0.64-0.28
			c-6.02-6.27-16.84-9.73-30.47-9.73c-14.92,0-26.48,4.18-32.12,11.55c-0.43-6.08-2.56-19.39-2.91-20.85
			c-1.74-7.14-4.34-14.34-7.72-21.41c-5.69-11.89-13.66-23.58-23.69-34.75c-6.95-7.74-14.61-14.96-22.77-21.44
			c-1.48-1.18-3.02-2.32-4.51-3.42c-0.48-0.36-0.96-0.71-1.44-1.07c68.35,1.16,124.04,45.03,127.14,100.49
			C637.87,175.56,637.74,175.76,637.63,175.87z"/>
	</g>
	<path class="st19" d="M542.46,77.4c0.9,0.71,1.78,1.45,2.64,2.21c15.7,13.96,20.29,35.67,13.22,55.33
		c-4.66,12.96-12.61,23.44-22.51,32.07c0.18-0.01,0.37-0.03,0.55-0.04c1.15-0.06,2.31-0.08,3.46-0.08
		c13.92,0,25.93,4.58,31.38,11.87c0.18,0.26,0.37,0.51,0.53,0.78c0-0.01,0-0.01-0.01-0.01c0.13,0.19,0.28,0.38,0.4,0.58h0.4
		c0,0,0,0,0,0c4.98-7.92,17.62-12.85,33.09-12.85c13.32,0,23.85,3.33,29.66,9.38c0.39,0.4,0.9,0.62,1.45,0.62
		c0.55,0,1.09-0.23,1.46-0.63c0.37-0.39,0.55-0.9,0.52-1.45C636.07,128.12,596.04,89.32,542.46,77.4z"/>
</g>
</svg>
