<?xml version="1.0" encoding="utf-8"?>
<!-- Generator: Adobe Illustrator 24.0.1, SVG Export Plug-In . SVG Version: 6.00 Build 0)  -->
<svg version="1.1" id="_x2018_ëîé_x5F_1" xmlns="http://www.w3.org/2000/svg" xmlns:xlink="http://www.w3.org/1999/xlink"
	 x="0px" y="0px" viewBox="0 0 811.61 833.4" style="enable-background:new 0 0 811.61 833.4;" xml:space="preserve">
<style type="text/css">
	.st0{display:none;fill:url(#SVGID_1_);}
	.st1{display:none;}
	.st2{display:inline;}
	.st3{display:inline;clip-path:url(#SVGID_3_);fill:url(#SVGID_4_);}
	.st4{display:inline;clip-path:url(#SVGID_3_);fill:url(#SVGID_5_);}
	.st5{fill:url(#SVGID_6_);}
	.st6{fill:#B749AD;}
	.st7{fill:#FCCFCB;}
	.st8{fill:#AE33A2;}
	.st9{fill:#FDE1DF;}
	.st10{fill:#D60B2F;}
	.st11{fill:#400060;}
	.st12{fill:#832500;}
	.st13{fill:#FFFFFF;}
	.st14{fill:#FF6334;}
	.st15{display:inline;fill:#763B90;}
	.st16{display:inline;fill:#E6007E;}
	.st17{display:inline;fill:#FFFFFF;}
	.st18{fill:#00D4DD;}
	.st19{fill:#A771CC;}
	.st20{fill:#B385D3;}
	.st21{display:inline;fill:#BA90D7;}
	.st22{display:inline;fill:#A771CC;}
	.st23{display:inline;fill:#B385D3;}
	.st24{fill:#E6007E;}
</style>
<linearGradient id="SVGID_1_" gradientUnits="userSpaceOnUse" x1="1068.8121" y1="17.1706" x2="-735.1171" y2="925.7665">
	<stop  offset="0" style="stop-color:#00D4DD"/>
	<stop  offset="0.5294" style="stop-color:#B75ABC"/>
</linearGradient>
<path class="st0" d="M892.62,787.43c2.3-22.67,3.6-45.44,4.51-68.2c2.28-56.88,5.25-113.89,4.61-170.82
	c-0.67-59.06-4.81-118.04-11.94-176.67c-2.07-14.1-4.28-28.18-6.68-42.23c-6.2-36.37-13.49-72.55-21.69-108.53
	c-6.01-26.36-13.39-52.19-22.83-77.44c-15.53-33.05-34.35-64.41-55.89-93.9C765.41,27.95,747.85,6.49,731.53-16
	c-8.79-12.11-17.35-24.39-26.15-36.5c-7.19-8.54-14.76-16.75-22.87-24.4c-1.26-0.77-2.54-1.53-3.82-2.27
	c-18.69-7.76-35.39-18.93-50.08-33.52c-8.08-10.46-16.16-20.91-24.24-31.37c-4.26-7.34-7.86-14.85-10.83-22.54H0v1000h881.94
	C886.52,818.35,889.94,802.95,892.62,787.43z"/>
<g class="st1">
	<defs>
		<rect id="SVGID_2_" y="-166.6" width="1400" height="1000"/>
	</defs>
	<clipPath id="SVGID_3_" class="st2">
		<use xlink:href="#SVGID_2_"  style="overflow:visible;"/>
	</clipPath>
	<radialGradient id="SVGID_4_" cx="1167.6494" cy="162.0343" r="576.147" gradientUnits="userSpaceOnUse">
		<stop  offset="0" style="stop-color:#211D00"/>
		<stop  offset="0.3476" style="stop-color:#1D1900"/>
		<stop  offset="0.697" style="stop-color:#110F00"/>
		<stop  offset="1" style="stop-color:#000000"/>
	</radialGradient>
	<path class="st3" d="M901.74,548.4c-0.67-59.06-4.81-118.04-11.94-176.67c-2.07-14.1-4.28-28.18-6.68-42.23
		c-6.2-36.37-13.49-72.55-21.69-108.53c-6.01-26.36-13.39-52.19-22.83-77.44c-15.53-33.05-34.35-64.41-55.89-93.9
		C765.41,27.95,747.85,6.49,731.53-16c-8.79-12.11-17.35-24.39-26.15-36.5c-7.19-8.54-14.76-16.75-22.87-24.4
		c-1.26-0.77-2.54-1.53-3.82-2.27c-9.65-4.01-18.77-8.93-27.35-14.76C613.04-16.81,591.5,70.1,591.5,162.03
		c0,221.22,124.67,413.31,307.59,509.86C900.78,630.74,902.2,589.55,901.74,548.4z"/>
	<radialGradient id="SVGID_5_" cx="1167.6494" cy="161.3914" r="576.4685" gradientUnits="userSpaceOnUse">
		<stop  offset="0" style="stop-color:#211D00"/>
		<stop  offset="0.3476" style="stop-color:#1D1900"/>
		<stop  offset="0.697" style="stop-color:#110F00"/>
		<stop  offset="1" style="stop-color:#000000"/>
	</radialGradient>
	<path class="st4" d="M1167.65-414.11c-111.56,0-215.72,31.71-303.95,86.61c9,6.87,17.74,14.08,26.34,21.08
		c13.35,10.86,25.22,23.42,36.18,36.66c10.56,12.75,20.59,25.85,30.4,39.1c0.48-11.64,2.27-23.28,5.39-34.92
		c14.56-52.88,56.14-92.83,108.26-108.26c5.39-1.6,10.84-2.96,16.35-4.07c18.82-3.79,38.08-5.77,57.09-8.09
		c5.91-0.72,11.85-1.2,17.81-1.47c12.33-0.56,24.69-0.22,36.98,0.89c19.62,1.76,39.18,4.73,58.64,7.61
		c6.32,0.93,12.6,2.06,18.85,3.38c12.78,2.69,25.41,6.15,37.77,10.37c6.03,2.06,12,4.3,17.89,6.73
		c17.73,7.31,35.72,14.4,53.01,22.77c11.07,5.36,21.8,11.42,31.99,18.3c15.5,10.45,30.12,22.37,44.71,33.97
		c4.54,3.61,8.94,7.37,13.15,11.36c4.09,3.87,8.01,7.93,11.69,12.2c10.31,11.99,19.79,24.9,29.19,37.62
		c1.76,2.38,3.44,4.81,5.04,7.3c3.36,5.22,6.38,10.66,9.09,16.25c4.24,8.74,7.82,17.91,11.57,26.8c3.69,8.73,7.62,17.48,10.94,26.4
		c4.57,12.26,7.95,24.95,10.54,37.77c1.38,6.84,2.53,13.72,3.5,20.63c2.8,19.94,5.8,39.9,7.74,59.95
		c1.31,13.52,2.06,27.09,2.49,40.66c0.86,27.07,1.28,54.43,0.1,81.5c-1.3,29.72-5.84,59.14-9.87,88.58
		c-2.22,16.18-5.03,32.26-8.26,48.27c-13.04,64.57-32.26,127.82-41.5,193.15c-7.36,26.26-20.65,49.06-39.86,68.4l-29.74,22.97
		c0.6,20.43,1.41,40.85,2.02,61.29c0.87,29.03,1.31,58.1,0.06,87.13c175.75-98.67,294.51-286.82,294.51-502.72
		C1743.8-156.16,1485.85-414.11,1167.65-414.11z"/>
</g>
<linearGradient id="SVGID_6_" gradientUnits="userSpaceOnUse" x1="646.1052" y1="274.0569" x2="-86.4775" y2="771.7664">
	<stop  offset="0" style="stop-color:#00D4DD"/>
	<stop  offset="0.5294" style="stop-color:#B75ABC"/>
</linearGradient>
<path class="st5" d="M284.68,104.02c63.52-33.74,167.98-37.92,233.41-4.92c47.33,23.87,78.92,71.5,95.69,120.69
	c12.24,35.91,7.47,58.52-0.19,93.93c-12.34,57.04,22.49,78.78,65.76,109.59c51.71,36.81,74.88,78.79,66.79,143.55
	c-12.86,102.97-123.33,138.75-210.76,149.21c-63.06,7.54-121.4,8.54-179.27-14.73C294.49,676.56,235,631.88,198.85,573.02
	c-28.96-47.17-56.98-100.84-64.95-156.26C121.6,331.17,127.54,187.51,284.68,104.02z"/>
<g>
	<path class="st6" d="M292.07,730.23c0,0,30.3-129.99-43.7-177.24C232.35,627.59,283.29,721.45,292.07,730.23z"/>
	<path class="st7" d="M688.09,535.98c-6.65,8.13-127.46,190.51-396.02,139.69c-0.97,0.46-1.91,0.91-2.83,1.35
		c-53.91,25.67-38.96,15.07-38.96,15.07l-0.45-99.88c0,0,51.37-43.75,90.26-48.31c56.14-6.58,130.8,18.13,190.27,7.62
		c22.92-4.05,42.45-11.87,30.42,13.61c36.69-14.93,50.4-25.69,90.6-56.5C684.3,483.42,724.01,492.12,688.09,535.98z"/>
	<path class="st8" d="M292.08,732.55c0,0-93.84,90.99-100.86,100.85L0,831.93V759.7c146.2-93.36,248.38-204.4,248.38-204.4
		s0.26,13.97,3.36,36.7c3.26,23.87,9.65,57.41,22.15,94.54C280.34,705.7,281.95,712.3,292.08,732.55z"/>
	<path class="st9" d="M690.55,532.88c-0.94-1.29-2.22-2.38-3.88-3.26c-41.63-22.01-99.05,104.34-222.67,80.36
		c-81.55-15.81-122.44-12.11-144.02,13.1c-9.83,11.48-25.02,35.74-26.69,52.82c-0.04,0.38-0.06,0.75-0.09,1.13
		c0.46-0.23,115.83,24.55,215.23-10.18c13.35-4.66,28.22-10.42,40.82-16.9C650.13,606.21,690.55,532.88,690.55,532.88z"/>
</g>
<g>
	<path class="st10" d="M191.21,282.99c42.45,25.33,36.84,85.3,129.67,59.48c92.83-25.82,175.54-100.33,157.44-105.6
		C388.42,210.72,265.69,311.27,191.21,282.99z"/>
	<g>
		<path class="st11" d="M451.12,162.96c-1.33-4.07-0.76-12.44-14.77-9.81c-14.01,2.63-22.89,6.15-22.52,21.88
			c0.16,7,4.72,24.59,12.02,31.89c7.3,7.3,17.61,4.51,26.26-12.41C455.74,187.41,455,174.89,451.12,162.96z"/>
		<path class="st12" d="M454.95,226.24c-6.77-3.21-4.35-31.06-4.35-31.06H438.4h-12.29c0,0,2.43,27.85-4.35,31.06
			c0,12.91,10.81,10.19,16.21,15.01c0,0.1,0,0.21,0,0.32c0.06-0.05,0.12-0.1,0.17-0.16c0.06,0.05,0.11,0.1,0.17,0.16
			c0-0.1,0-0.21,0-0.32C443.73,236.43,454.95,239.15,454.95,226.24z"/>
		<polygon class="st13" points="458.43,223.51 490.4,239.93 469.57,342.47 405.57,342.47 386.3,239.93 419.75,223.51 438.62,230.92 
					"/>
		<path class="st12" d="M457.95,181.7c1.52,14.67,0.1,27.4-14.05,27.4c-12.55,0-22.11-12.85-22.11-27.6
			c0-14.74,6.67-24.19,16.6-24.19C448.32,157.31,456,162.96,457.95,181.7z"/>
		<polygon class="st11" points="405.57,342.47 469.57,342.47 472.85,369.71 438.32,375.95 403.55,369.71 		"/>
		<polygon class="st12" points="466.9,566.33 467.74,576.49 474.22,584.83 483.81,578.97 477.66,574.62 477.41,565.18 		"/>
		<polygon class="st11" points="466.9,575.23 464.28,581.27 464.28,587.26 471.67,587.26 474.54,585.64 484.17,587.26 
			502.75,587.26 501.98,584.83 481.52,575.74 472.98,580.12 		"/>
		<path class="st12" d="M391.98,346.03c0,0,5.12-4.73,9.26-3.29c4.13,1.44,4.23,3.75,3.32,4.2c3.17,1.1,7.82,3.01,2.92,4.39
			c1.7,1.32,0.25,3.67-1.7,3.25c1.63,1.45,0.62,3.18-1.41,3.36c-0.46,6.8-10.82-0.9-14.06-4.23c-1.19-0.05-4.39-3.86-4.76-4.67
			c-1.16-2.52,1.69-6.98,1.69-6.98L391.98,346.03z"/>
		<path class="st13" d="M386.3,239.93c0,0,10.07,19.73,8.59,41.36c-19.81,13.77-46.08,23.58-5.04,62.62
			c-2.91,4.7-3.56,12.09-3.56,12.09S273.02,314.87,386.3,239.93z"/>
		<path class="st12" d="M483.79,346.03c0,0-5.12-4.73-9.26-3.29c-4.13,1.44-4.23,3.75-3.32,4.2c-3.17,1.1-7.82,3.01-2.92,4.39
			c-1.69,1.32-0.25,3.67,1.7,3.25c-1.63,1.45-0.62,3.18,1.41,3.36c0.46,6.8,10.82-0.9,14.06-4.23c1.2-0.05,4.39-3.86,4.76-4.67
			c1.16-2.52-1.69-6.98-1.69-6.98L483.79,346.03z"/>
		<path class="st13" d="M489.47,239.47c0,0-10.07,19.73-8.59,41.36c19.81,13.77,46.08,23.58,5.04,62.62
			c2.91,4.7,3.56,12.09,3.56,12.09S602.75,314.41,489.47,239.47z"/>
		<polygon class="st12" points="417.36,566.33 416.52,576.49 410.04,584.83 400.44,578.97 406.6,574.62 406.85,565.18 		"/>
		<path class="st11" d="M403.55,369.27c0,31.85,6.23,86.26,2.01,110.31c-4.27,24.29-0.19,92.66-0.19,92.66h13.46
			c0,0,16.52-54.37,8.77-97.99c-2.4-13.52,10.72-53.43,10.72-98.73L403.55,369.27z"/>
		<path class="st11" d="M472.85,369.71c0,31.85-3.73,85.82,0.49,109.87c4.27,24.29,4.72,92.66,4.72,92.66h-13.46
			c0,0-20.32-54.08-12.57-97.71c2.4-13.52-14.46-53.71-14.46-99.02L472.85,369.71z"/>
		<polygon class="st11" points="417.36,575.23 419.98,581.27 419.98,587.26 414.01,587.26 403.11,587.26 390.76,587.26 
			390.76,584.83 402.74,575.74 411.28,580.12 		"/>
		<path class="st11" d="M451.12,162.96c0,0-6.44-4.12-18.18,1.42c-2.61,27.26-11.18,17.95-11.18,17.95s-5.43-11.17-0.07-18.24
			c5.35-7.07,19.49-13.49,25.16-11.48C452.51,154.63,451.12,162.96,451.12,162.96z"/>
		<path class="st12" d="M422.98,183.36c0,0-4.94-5.06-3.46,2.49c1.48,7.55,4.71,12.98,7.2,12.98c2.49,0,1.38-1.54,1.38-1.54
			L422.98,183.36z"/>
		<polygon class="st11" points="435.4,226.47 442.13,226.47 444.31,233.04 438.81,238.48 432.93,233.8 		"/>
		<polygon class="st11" points="436.64,236.87 434.12,329.34 439.12,335.1 443.9,328.99 440.48,236.87 		"/>
		<path class="st14" d="M449.38,234.4c0,0,14.87-4.93,34.02,1.93c-27.54-14.09-28.45-15.25-28.45-15.25L449.38,234.4z"/>
		<polygon class="st13" points="452.21,213.39 460.13,222.37 446.01,241.74 438.62,226.14 		"/>
		<path class="st14" d="M424.61,234.64c0,0-16.06-3.11-33.1,3.85c-20.97,8.56-109.02,85.35-200.29,44.5
			c77.95,20.14,156.68-46.66,228.03-60.27C456.38,224.81,424.61,234.64,424.61,234.64z"/>
		<polygon class="st13" points="424.5,213.39 416.58,222.37 430.69,241.74 438.62,226.14 		"/>
	</g>
</g>
<g class="st1">
	<path class="st15" d="M92.12-80.01v3.23h3.74v-3.23h1.01v7.72h-1.01v-3.62h-3.74v3.62h-1v-7.72H92.12z"/>
	<path class="st15" d="M106.69-76.23c0,2.66-1.62,4.07-3.59,4.07c-2.04,0-3.47-1.58-3.47-3.92c0-2.45,1.52-4.06,3.59-4.06
		C105.32-80.14,106.69-78.52,106.69-76.23z M100.69-76.1c0,1.65,0.89,3.13,2.46,3.13c1.58,0,2.48-1.46,2.48-3.21
		c0-1.54-0.8-3.14-2.46-3.14C101.52-79.32,100.69-77.8,100.69-76.1z"/>
	<path class="st15" d="M115.99-75.68c-0.06-1.08-0.13-2.37-0.11-3.33h-0.03c-0.26,0.91-0.58,1.87-0.97,2.93l-1.36,3.75h-0.76
		l-1.25-3.68c-0.37-1.09-0.68-2.09-0.89-3h-0.02c-0.02,0.96-0.08,2.26-0.15,3.42l-0.21,3.31h-0.95l0.54-7.72h1.27l1.32,3.74
		c0.32,0.95,0.58,1.8,0.78,2.6h0.03c0.19-0.78,0.47-1.63,0.81-2.6l1.38-3.74h1.27l0.48,7.72h-0.97L115.99-75.68z"/>
	<path class="st15" d="M124.19-75.91h-3v2.78h3.35v0.84h-4.34v-7.72h4.17v0.84h-3.17v2.44h3V-75.91z"/>
</g>
<g class="st1">
	<path class="st16" d="M225.97-79.92c0.48-0.08,1.11-0.15,1.91-0.15c0.99,0,1.71,0.23,2.17,0.64c0.42,0.37,0.68,0.93,0.68,1.62
		c0,0.7-0.21,1.25-0.6,1.65c-0.53,0.56-1.39,0.85-2.36,0.85c-0.3,0-0.57-0.01-0.8-0.07v3.09h-1V-79.92z M226.96-76.2
		c0.22,0.06,0.49,0.08,0.83,0.08c1.2,0,1.94-0.58,1.94-1.65c0-1.02-0.72-1.51-1.82-1.51c-0.44,0-0.77,0.03-0.94,0.08V-76.2z"/>
	<path class="st16" d="M233.56-79.91c0.5-0.1,1.23-0.16,1.91-0.16c1.07,0,1.75,0.19,2.23,0.63c0.39,0.34,0.61,0.87,0.61,1.47
		c0,1.02-0.64,1.7-1.46,1.97v0.03c0.6,0.21,0.95,0.76,1.13,1.56c0.25,1.08,0.44,1.82,0.6,2.12h-1.03c-0.13-0.22-0.3-0.88-0.52-1.84
		c-0.23-1.07-0.64-1.47-1.55-1.5h-0.94v3.35h-1V-79.91z M234.55-76.39h1.02c1.07,0,1.74-0.58,1.74-1.47c0-1-0.72-1.43-1.78-1.44
		c-0.48,0-0.83,0.05-0.99,0.09V-76.39z"/>
	<path class="st16" d="M247.85-76.23c0,2.66-1.62,4.07-3.59,4.07c-2.04,0-3.47-1.58-3.47-3.92c0-2.45,1.52-4.06,3.59-4.06
		C246.49-80.14,247.85-78.52,247.85-76.23z M241.86-76.1c0,1.65,0.89,3.13,2.46,3.13c1.58,0,2.48-1.46,2.48-3.21
		c0-1.54-0.8-3.14-2.46-3.14C242.68-79.32,241.86-77.8,241.86-76.1z"/>
	<path class="st16" d="M250.64-79.91c0.61-0.09,1.33-0.16,2.12-0.16c1.43,0,2.45,0.33,3.13,0.96c0.69,0.63,1.09,1.52,1.09,2.77
		c0,1.26-0.39,2.29-1.11,3c-0.72,0.72-1.91,1.11-3.41,1.11c-0.71,0-1.31-0.03-1.81-0.09V-79.91z M251.64-73.08
		c0.25,0.05,0.62,0.06,1.01,0.06c2.13,0,3.29-1.19,3.29-3.28c0.01-1.82-1.02-2.98-3.13-2.98c-0.52,0-0.91,0.05-1.17,0.1V-73.08z"/>
	<path class="st16" d="M260.77-80.01v4.57c0,1.73,0.77,2.46,1.8,2.46c1.15,0,1.88-0.76,1.88-2.46v-4.57h1.01v4.5
		c0,2.37-1.25,3.35-2.92,3.35c-1.58,0-2.77-0.91-2.77-3.3v-4.55H260.77z"/>
	<path class="st16" d="M274.07-72.54c-0.37,0.18-1.1,0.37-2.04,0.37c-2.18,0-3.82-1.38-3.82-3.91c0-2.42,1.64-4.06,4.03-4.06
		c0.96,0,1.57,0.21,1.83,0.34l-0.24,0.81c-0.38-0.18-0.92-0.32-1.56-0.32c-1.81,0-3.01,1.16-3.01,3.19c0,1.89,1.09,3.11,2.97,3.11
		c0.61,0,1.23-0.13,1.63-0.32L274.07-72.54z"/>
	<path class="st16" d="M278.61-79.16h-2.35v-0.85h5.72v0.85h-2.36v6.88h-1.01V-79.16z"/>
	<path class="st16" d="M284.12-73.5c0.45,0.28,1.1,0.5,1.79,0.5c1.02,0,1.62-0.54,1.62-1.32c0-0.72-0.41-1.13-1.46-1.54
		c-1.26-0.45-2.04-1.1-2.04-2.19c0-1.2,1-2.1,2.5-2.1c0.79,0,1.36,0.18,1.71,0.38l-0.27,0.81c-0.25-0.14-0.77-0.37-1.47-0.37
		c-1.05,0-1.46,0.63-1.46,1.16c0,0.72,0.47,1.08,1.54,1.49c1.31,0.5,1.97,1.13,1.97,2.27c0,1.19-0.88,2.22-2.7,2.22
		c-0.74,0-1.56-0.22-1.97-0.49L284.12-73.5z"/>
</g>
<g class="st1">
	<path class="st15" d="M395.45-72.54c-0.37,0.18-1.1,0.37-2.04,0.37c-2.18,0-3.82-1.38-3.82-3.91c0-2.42,1.64-4.06,4.03-4.06
		c0.96,0,1.57,0.21,1.83,0.34l-0.24,0.81c-0.38-0.18-0.92-0.32-1.56-0.32c-1.81,0-3.01,1.16-3.01,3.19c0,1.89,1.09,3.11,2.97,3.11
		c0.61,0,1.23-0.13,1.63-0.32L395.45-72.54z"/>
	<path class="st15" d="M404.55-76.23c0,2.66-1.62,4.07-3.59,4.07c-2.04,0-3.47-1.58-3.47-3.92c0-2.45,1.52-4.06,3.59-4.06
		C403.19-80.14,404.55-78.52,404.55-76.23z M398.56-76.1c0,1.65,0.89,3.13,2.46,3.13c1.58,0,2.48-1.46,2.48-3.21
		c0-1.54-0.8-3.14-2.46-3.14C399.38-79.32,398.56-77.8,398.56-76.1z"/>
	<path class="st15" d="M407.34-72.29v-7.72h1.09l2.48,3.91c0.57,0.91,1.02,1.72,1.39,2.51l0.02-0.01c-0.09-1.03-0.11-1.97-0.11-3.17
		v-3.23h0.94v7.72h-1.01l-2.45-3.92c-0.54-0.86-1.05-1.74-1.44-2.58l-0.03,0.01c0.06,0.97,0.08,1.9,0.08,3.19v3.3H407.34z"/>
	<path class="st15" d="M417.84-79.16h-2.35v-0.85h5.72v0.85h-2.36v6.88h-1.01V-79.16z"/>
	<path class="st15" d="M423.96-74.72l-0.8,2.43h-1.03l2.62-7.72h1.2l2.64,7.72h-1.07l-0.83-2.43H423.96z M426.49-75.5l-0.76-2.22
		c-0.17-0.5-0.29-0.96-0.4-1.41h-0.02c-0.11,0.46-0.24,0.93-0.39,1.4l-0.76,2.23H426.49z"/>
	<path class="st15" d="M436.44-72.54c-0.37,0.18-1.1,0.37-2.04,0.37c-2.18,0-3.82-1.38-3.82-3.91c0-2.42,1.64-4.06,4.03-4.06
		c0.96,0,1.57,0.21,1.83,0.34l-0.24,0.81c-0.38-0.18-0.92-0.32-1.56-0.32c-1.81,0-3.01,1.16-3.01,3.19c0,1.89,1.09,3.11,2.97,3.11
		c0.61,0,1.23-0.13,1.63-0.32L436.44-72.54z"/>
	<path class="st15" d="M440.97-79.16h-2.35v-0.85h5.72v0.85h-2.36v6.88h-1.01V-79.16z"/>
	<path class="st15" d="M446.49-73.5c0.45,0.28,1.1,0.5,1.79,0.5c1.02,0,1.62-0.54,1.62-1.32c0-0.72-0.41-1.13-1.46-1.54
		c-1.26-0.45-2.04-1.1-2.04-2.19c0-1.2,1-2.1,2.5-2.1c0.79,0,1.36,0.18,1.71,0.38l-0.27,0.81c-0.25-0.14-0.77-0.37-1.47-0.37
		c-1.05,0-1.46,0.63-1.46,1.16c0,0.72,0.47,1.08,1.54,1.49c1.31,0.5,1.97,1.13,1.97,2.27c0,1.19-0.88,2.22-2.7,2.22
		c-0.74,0-1.56-0.22-1.97-0.49L446.49-73.5z"/>
</g>
<g class="st1">
	<path class="st15" d="M553.67-74.72l-0.8,2.43h-1.03l2.62-7.72h1.2l2.64,7.72h-1.07l-0.82-2.43H553.67z M556.2-75.5l-0.76-2.22
		c-0.17-0.5-0.29-0.96-0.4-1.41h-0.02c-0.11,0.46-0.24,0.93-0.39,1.4l-0.76,2.23H556.2z"/>
	<path class="st15" d="M560.92-79.91c0.43-0.09,1.12-0.16,1.82-0.16c1,0,1.64,0.17,2.12,0.56c0.4,0.3,0.64,0.76,0.64,1.36
		c0,0.75-0.49,1.4-1.31,1.7v0.02c0.73,0.18,1.59,0.79,1.59,1.94c0,0.66-0.26,1.17-0.65,1.55c-0.54,0.49-1.41,0.72-2.67,0.72
		c-0.69,0-1.21-0.05-1.55-0.09V-79.91z M561.92-76.75h0.91c1.05,0,1.67-0.55,1.67-1.29c0-0.91-0.69-1.26-1.7-1.26
		c-0.46,0-0.72,0.03-0.88,0.07V-76.75z M561.92-73.04c0.19,0.03,0.48,0.05,0.84,0.05c1.03,0,1.98-0.38,1.98-1.5
		c0-1.05-0.91-1.49-1.99-1.49h-0.83V-73.04z"/>
	<path class="st15" d="M575.23-76.23c0,2.66-1.62,4.07-3.59,4.07c-2.04,0-3.47-1.58-3.47-3.92c0-2.45,1.52-4.06,3.59-4.06
		C573.87-80.14,575.23-78.52,575.23-76.23z M569.24-76.1c0,1.65,0.89,3.13,2.46,3.13c1.58,0,2.48-1.46,2.48-3.21
		c0-1.54-0.8-3.14-2.46-3.14C570.06-79.32,569.24-77.8,569.24-76.1z"/>
	<path class="st15" d="M579.02-80.01v4.57c0,1.73,0.77,2.46,1.8,2.46c1.15,0,1.88-0.76,1.88-2.46v-4.57h1.01v4.5
		c0,2.37-1.25,3.35-2.92,3.35c-1.58,0-2.77-0.91-2.77-3.3v-4.55H579.02z"/>
	<path class="st15" d="M588.4-79.16h-2.35v-0.85h5.72v0.85h-2.36v6.88h-1.01V-79.16z"/>
</g>
<g class="st1">
	<path class="st16" d="M872.11,444.55h24.94c-1.59-20.48-3.57-40.93-5.91-61.34h-19.03c-11,0-20,9-20,20v21.34
		C852.11,435.55,861.11,444.55,872.11,444.55z"/>
	<g class="st2">
		<path class="st13" d="M879.63,412.47c0-1.5-0.03-2.79-0.11-3.97h2.03l0.08,2.5h0.11c0.58-1.71,1.97-2.79,3.52-2.79
			c0.26,0,0.45,0.03,0.66,0.08v2.18c-0.24-0.05-0.47-0.08-0.79-0.08c-1.63,0-2.79,1.24-3.1,2.97c-0.05,0.32-0.11,0.68-0.11,1.08
			v6.79h-2.29V412.47z"/>
		<path class="st13" d="M888.89,415.07c0,3.82,2.32,6.39,6.21,6.42c-0.06-0.61-0.11-1.22-0.17-1.83c-2.08-0.19-3.78-1.5-3.83-4.38
			h3.42c-0.05-0.55-0.11-1.1-0.16-1.66h-3.23c0.16-1.44,1.01-3.31,2.87-3.68c-0.05-0.55-0.11-1.1-0.16-1.65
			C890.74,408.8,888.89,411.6,888.89,415.07z"/>
	</g>
</g>
<g class="st1">
	<path class="st17" d="M854.03,264.54h1.39V273h4.38v1.27h-5.77V264.54z"/>
	<path class="st17" d="M865.33,267.84c0.97,0,1.78,0.31,2.43,0.94c0.65,0.63,0.97,1.42,0.97,2.37c0,0.92-0.33,1.69-0.98,2.3
		c-0.65,0.61-1.48,0.91-2.47,0.91c-0.96,0-1.76-0.31-2.41-0.93c-0.64-0.62-0.97-1.39-0.97-2.32c0-0.94,0.33-1.72,0.98-2.34
		C863.53,268.16,864.35,267.84,865.33,267.84z M865.26,268.99c-0.61,0-1.11,0.2-1.5,0.6c-0.39,0.4-0.58,0.91-0.58,1.52
		c0,0.61,0.2,1.11,0.6,1.5c0.4,0.39,0.91,0.58,1.54,0.58c0.62,0,1.13-0.2,1.53-0.59c0.4-0.39,0.6-0.89,0.6-1.51
		c0-0.61-0.21-1.11-0.62-1.51C866.41,269.19,865.89,268.99,865.26,268.99z"/>
	<path class="st17" d="M871.64,268.34v5.92h1.21C872.45,272.29,872.04,270.31,871.64,268.34z"/>
	<path class="st17" d="M857.88,288.86v2.72c0,0.22,0.07,0.33,0.22,0.33c0.15,0,0.39-0.11,0.72-0.34v0.77
		c-0.29,0.19-0.52,0.31-0.69,0.38c-0.17,0.07-0.36,0.1-0.55,0.1c-0.54,0-0.86-0.21-0.96-0.64c-0.54,0.42-1.11,0.63-1.72,0.63
		c-0.45,0-0.82-0.15-1.11-0.44c-0.3-0.29-0.45-0.66-0.45-1.11c0-0.4,0.15-0.76,0.44-1.08c0.29-0.32,0.7-0.57,1.24-0.75l1.62-0.56
		v-0.34c0-0.77-0.39-1.16-1.16-1.16c-0.69,0-1.36,0.36-2.02,1.07v-1.38c0.49-0.58,1.2-0.87,2.12-0.87c0.69,0,1.25,0.18,1.66,0.54
		c0.14,0.12,0.26,0.27,0.38,0.46c0.11,0.19,0.18,0.39,0.21,0.58C857.86,287.96,857.88,288.32,857.88,288.86z M856.63,291.44v-1.9
		l-0.85,0.33c-0.43,0.17-0.74,0.34-0.92,0.52c-0.18,0.17-0.27,0.39-0.27,0.65c0,0.26,0.08,0.48,0.25,0.65
		c0.17,0.17,0.39,0.25,0.66,0.25C855.91,291.94,856.29,291.77,856.63,291.44z"/>
	<path class="st17" d="M865.64,282.99h1.27v9.72h-2.71c-0.95,0-1.7-0.3-2.27-0.9c-0.56-0.6-0.85-1.4-0.85-2.41
		c0-0.94,0.3-1.72,0.89-2.32c0.59-0.61,1.35-0.91,2.27-0.91c0.43,0,0.89,0.09,1.39,0.27V282.99z M865.64,291.62v-4.06
		c-0.39-0.2-0.79-0.3-1.2-0.3c-0.63,0-1.13,0.21-1.51,0.62c-0.37,0.41-0.56,0.97-0.56,1.67c0,0.66,0.16,1.17,0.49,1.52
		c0.2,0.21,0.4,0.36,0.62,0.43c0.22,0.07,0.61,0.11,1.18,0.11H865.64z"/>
	<path class="st17" d="M870.71,283.61c0.21,0,0.39,0.07,0.54,0.22c0.15,0.14,0.22,0.32,0.22,0.53c0,0.2-0.07,0.38-0.22,0.53
		c-0.15,0.15-0.33,0.22-0.54,0.22c-0.19,0-0.37-0.08-0.51-0.23c-0.15-0.15-0.22-0.33-0.22-0.53c0-0.19,0.07-0.37,0.22-0.52
		C870.34,283.69,870.51,283.61,870.71,283.61z M870.08,286.31h1.27v6.4h-1.27V286.31z"/>
	<path class="st17" d="M876.24,291.59c-0.14-0.05-0.29-0.09-0.42-0.16v-2.07c-0.2-1.02-0.4-2.03-0.59-3.05h-0.7v9.67h1.29v-3.42
		c0.22,0.08,0.43,0.14,0.64,0.18C876.38,292.35,876.31,291.97,876.24,291.59z"/>
	<path class="st17" d="M857.93,311.16v-0.82c-0.27,0.29-0.58,0.52-0.92,0.69c-0.35,0.16-0.69,0.25-1.03,0.25
		c-0.4,0-0.78-0.1-1.12-0.3c-0.34-0.2-0.6-0.48-0.77-0.82c-0.17-0.35-0.26-0.92-0.26-1.72v-3.67h1.27v3.65
		c0,0.67,0.1,1.14,0.29,1.41c0.19,0.27,0.53,0.4,1.01,0.4c0.6,0,1.12-0.29,1.54-0.88v-4.57h1.27v6.4H857.93z"/>
	<path class="st17" d="M861.51,305.77l2.38-2.34v1.32h2.03v1.14h-2.03v3.13c0,0.73,0.3,1.1,0.91,1.1c0.45,0,0.94-0.15,1.44-0.45
		v1.18c-0.49,0.27-1.02,0.41-1.59,0.41c-0.58,0-1.06-0.17-1.45-0.51c-0.12-0.1-0.22-0.22-0.3-0.34c-0.08-0.13-0.15-0.29-0.2-0.5
		c-0.05-0.21-0.08-0.6-0.08-1.18v-2.84h-1.11V305.77z"/>
	<path class="st17" d="M873.99,301.43h1.27v9.72h-1.27V301.43z"/>
	<path class="st17" d="M879.71,310.26c-0.07-0.04-0.14-0.07-0.2-0.13c-0.17-0.17-0.25-0.38-0.25-0.65c0-0.22,0.08-0.41,0.21-0.57
		c-0.05-0.3-0.11-0.59-0.16-0.89c-0.35,0.16-0.66,0.35-0.87,0.59c-0.29,0.32-0.44,0.68-0.44,1.08c0,0.45,0.15,0.82,0.45,1.11
		c0.3,0.29,0.67,0.44,1.11,0.44c0.11,0,0.22-0.01,0.33-0.03C879.83,310.9,879.77,310.58,879.71,310.26z"/>
</g>
<g class="st1">
	<path class="st17" d="M849.07,174.46v20.96c0,5.6-0.22,11.64-0.45,15.34h10.4C856.04,198.54,852.74,186.44,849.07,174.46z"/>
</g>
<g class="st1">
	<g class="st2">
		<g>
			<path class="st18" d="M863.91,662.75c-6.51,0-11.8-5.29-11.8-11.8c0-6.51,5.29-11.8,11.8-11.8c6.51,0,11.8,5.29,11.8,11.8
				C875.71,657.46,870.42,662.75,863.91,662.75z M863.91,640.93c-5.53,0-10.02,4.5-10.02,10.02c0,5.53,4.5,10.02,10.02,10.02
				c5.53,0,10.02-4.5,10.02-10.02C873.94,645.43,869.44,640.93,863.91,640.93z"/>
		</g>
		<g>
			<path class="st18" d="M865.84,658.11c-0.23,0-0.46-0.09-0.63-0.26l-6.27-6.27c-0.35-0.35-0.35-0.91,0-1.26l6.27-6.27
				c0.35-0.35,0.91-0.35,1.26,0c0.35,0.35,0.35,0.91,0,1.26l-5.64,5.64l5.64,5.64c0.35,0.35,0.35,0.91,0,1.26
				C866.3,658.02,866.07,658.11,865.84,658.11z"/>
		</g>
	</g>
	<g class="st2">
		<g>
			<path class="st13" d="M896.02,660.97c-5.53,0-10.02-4.5-10.02-10.02c0-5.53,4.5-10.02,10.02-10.02c1.51,0,2.94,0.35,4.23,0.95
				c0.02-0.64,0.04-1.27,0.07-1.91c-1.33-0.52-2.78-0.82-4.3-0.82c-6.51,0-11.8,5.29-11.8,11.8c0,6.51,5.29,11.8,11.8,11.8
				c1.21,0,2.37-0.18,3.46-0.52c0.03-0.64,0.05-1.28,0.08-1.92C898.46,660.73,897.27,660.97,896.02,660.97z"/>
		</g>
		<g>
			<path class="st13" d="M893.46,644.06c-0.35,0.35-0.35,0.91,0,1.26l5.64,5.64l-5.64,5.64c-0.35,0.35-0.35,0.91,0,1.26
				c0.17,0.17,0.4,0.26,0.63,0.26s0.46-0.09,0.63-0.26l5.13-5.13c0.04-1.13,0.08-2.26,0.13-3.4l-5.26-5.26
				C894.37,643.71,893.81,643.71,893.46,644.06z"/>
		</g>
	</g>
</g>
<g class="st1">
	<g class="st2">
		<path class="st18" d="M560.88,484.7c-0.71,0-1.43-0.25-2-0.77c-1.23-1.11-1.34-3-0.23-4.24l8.7-9.72l-8.7-9.72
			c-1.11-1.23-1-3.13,0.23-4.24c1.23-1.11,3.13-1,4.24,0.23l10.5,11.72c1.02,1.14,1.02,2.86,0,4l-10.5,11.72
			C562.52,484.36,561.7,484.7,560.88,484.7z"/>
	</g>
	<g class="st2">
		<path class="st18" d="M582.95,484.7c-0.71,0-1.43-0.25-2-0.77c-1.23-1.11-1.34-3-0.23-4.24l8.71-9.72l-8.71-9.72
			c-1.11-1.23-1-3.13,0.23-4.24c1.23-1.11,3.13-1,4.24,0.23l10.5,11.72c1.02,1.14,1.02,2.86,0,4l-10.5,11.72
			C584.59,484.36,583.77,484.7,582.95,484.7z"/>
	</g>
	<g class="st2">
		<path class="st18" d="M605.02,484.7c-0.71,0-1.43-0.25-2-0.77c-1.23-1.11-1.34-3-0.23-4.24l8.7-9.72l-8.7-9.72
			c-1.11-1.23-1-3.13,0.23-4.24c1.23-1.11,3.13-1,4.24,0.23l10.5,11.72c1.02,1.14,1.02,2.86,0,4l-10.5,11.72
			C606.66,484.36,605.84,484.7,605.02,484.7z"/>
	</g>
</g>
<g class="st1">
	<g class="st2">
		<path class="st19" d="M113.12,122.4c-0.71,0-1.43-0.25-2-0.77c-1.23-1.11-1.34-3-0.23-4.24l8.7-9.72l-8.7-9.72
			c-1.11-1.23-1-3.13,0.23-4.24c1.23-1.11,3.13-1,4.24,0.23l10.5,11.72c1.02,1.14,1.02,2.86,0,4l-10.5,11.72
			C114.77,122.07,113.95,122.4,113.12,122.4z"/>
	</g>
	<g class="st2">
		<path class="st19" d="M135.19,122.4c-0.71,0-1.43-0.25-2-0.77c-1.23-1.11-1.34-3-0.23-4.24l8.71-9.72l-8.71-9.72
			c-1.11-1.23-1-3.13,0.23-4.24c1.23-1.11,3.13-1,4.24,0.23l10.5,11.72c1.02,1.14,1.02,2.86,0,4l-10.5,11.72
			C136.84,122.07,136.02,122.4,135.19,122.4z"/>
	</g>
	<g class="st2">
		<path class="st19" d="M157.26,122.4c-0.71,0-1.43-0.25-2-0.77c-1.23-1.11-1.34-3-0.23-4.24l8.7-9.72l-8.7-9.72
			c-1.11-1.23-1-3.13,0.23-4.24c1.23-1.11,3.13-1,4.24,0.23l10.5,11.72c1.02,1.14,1.02,2.86,0,4l-10.5,11.72
			C158.91,122.07,158.09,122.4,157.26,122.4z"/>
	</g>
</g>
<g class="st1">
	<g class="st2">
		<path class="st18" d="M685.3,110.68c-0.71,0-1.43-0.25-2-0.77c-1.23-1.11-1.34-3-0.23-4.24l8.71-9.72l-8.71-9.72
			c-1.11-1.23-1-3.13,0.23-4.24c1.23-1.11,3.13-1,4.24,0.23l10.5,11.72c1.02,1.14,1.02,2.86,0,4l-10.5,11.72
			C686.94,110.35,686.12,110.68,685.3,110.68z"/>
	</g>
	<g class="st2">
		<path class="st18" d="M707.37,110.68c-0.71,0-1.43-0.25-2-0.77c-1.23-1.11-1.34-3-0.23-4.24l8.7-9.72l-8.7-9.72
			c-1.11-1.23-1-3.13,0.23-4.24c1.23-1.11,3.13-1,4.24,0.23l10.5,11.72c1.02,1.14,1.02,2.86,0,4l-10.5,11.72
			C709.01,110.35,708.19,110.68,707.37,110.68z"/>
	</g>
</g>
<g class="st1">
	<g class="st2">
		<path class="st18" d="M702.12,319.06c-0.71,0-1.43-0.25-2-0.77c-1.23-1.11-1.34-3-0.23-4.24l8.71-9.72l-8.71-9.72
			c-1.11-1.23-1-3.13,0.23-4.24c1.23-1.11,3.13-1,4.24,0.23l10.5,11.72c1.02,1.14,1.02,2.86,0,4l-10.5,11.72
			C703.76,318.73,702.94,319.06,702.12,319.06z"/>
	</g>
</g>
<g class="st1">
	<g class="st2">
		<path class="st20" d="M188.64,444.51c-0.71,0-1.43-0.25-2-0.77c-1.23-1.11-1.34-3-0.23-4.24l8.71-9.72l-8.71-9.72
			c-1.11-1.23-1-3.13,0.23-4.24c1.23-1.11,3.13-1,4.24,0.23l10.5,11.72c1.02,1.14,1.02,2.86,0,4l-10.5,11.72
			C190.28,444.17,189.46,444.51,188.64,444.51z"/>
	</g>
	<g class="st2">
		<path class="st20" d="M210.71,444.51c-0.71,0-1.43-0.25-2-0.77c-1.23-1.11-1.34-3-0.23-4.24l8.7-9.72l-8.7-9.72
			c-1.11-1.23-1-3.13,0.23-4.24c1.23-1.11,3.13-1,4.24,0.23l10.5,11.72c1.02,1.14,1.02,2.86,0,4l-10.5,11.72
			C212.35,444.17,211.53,444.51,210.71,444.51z"/>
	</g>
</g>
<g class="st1">
	<path class="st21" d="M376.67,783.32c-0.71,0-1.43-0.25-2-0.77c-1.23-1.11-1.34-3-0.23-4.24l8.71-9.72l-8.71-9.72
		c-1.11-1.23-1-3.13,0.23-4.24c1.23-1.1,3.13-1,4.24,0.23l10.5,11.72c1.02,1.14,1.02,2.86,0,4l-10.5,11.72
		C378.31,782.98,377.49,783.32,376.67,783.32z"/>
</g>
<g class="st1">
	<path class="st22" d="M80.55,319.06c-0.71,0-1.43-0.25-2-0.77c-1.23-1.11-1.34-3-0.23-4.24l8.71-9.72l-8.71-9.72
		c-1.11-1.23-1-3.13,0.23-4.24c1.23-1.11,3.13-1,4.24,0.23l10.5,11.72c1.02,1.14,1.02,2.86,0,4l-10.5,11.72
		C82.2,318.73,81.38,319.06,80.55,319.06z"/>
</g>
<g class="st1">
	<path class="st23" d="M313.33,196.23c-1.95,0-3.75-1.28-4.32-3.24c-0.69-2.39,0.68-4.88,3.06-5.58c0.11-0.03,0.22-0.07,0.33-0.1
		c2.37-0.77,4.9,0.53,5.67,2.89c0.77,2.36-0.53,4.9-2.89,5.67c-0.2,0.06-0.39,0.12-0.59,0.18
		C314.17,196.17,313.75,196.23,313.33,196.23z M296.26,190.41c-1.39,0-2.75-0.64-3.64-1.84c-0.12-0.17-0.24-0.34-0.36-0.51
		c-1.4-2.05-0.87-4.85,1.18-6.25c2.05-1.4,4.85-0.87,6.25,1.18c0.06,0.09,0.13,0.18,0.19,0.27c1.47,2.01,1.03,4.82-0.98,6.29
		C298.12,190.13,297.19,190.41,296.26,190.41z M324.61,181.65c-0.05,0-0.09,0-0.14,0c-2.48-0.08-4.44-2.15-4.36-4.64
		c0-0.11,0.01-0.22,0.01-0.33c0-0.03,0-0.06,0-0.08c0-2.49,2.01-4.5,4.5-4.5c2.49,0,4.5,2.01,4.5,4.5h-4.5l4.5,0.01
		c0,0.26,0,0.47-0.01,0.67C329.03,179.73,327.03,181.65,324.61,181.65z M296.22,171.99c-0.92,0-1.84-0.28-2.64-0.86
		c-2.01-1.46-2.46-4.27-1-6.28c0.12-0.16,0.24-0.33,0.36-0.49c1.52-1.97,4.34-2.34,6.31-0.82c1.97,1.52,2.34,4.34,0.82,6.31
		l-0.21,0.28C298.98,171.34,297.61,171.99,296.22,171.99z M314.19,166.39c-0.5,0-1.01-0.08-1.51-0.26
		c-0.11-0.04-0.22-0.07-0.33-0.11c-2.37-0.76-3.67-3.3-2.91-5.66c0.76-2.37,3.3-3.67,5.66-2.91c0.2,0.06,0.39,0.13,0.59,0.2
		c2.34,0.83,3.56,3.41,2.73,5.75C317.77,165.24,316.04,166.39,314.19,166.39z"/>
</g>
<g class="st1">
	<path class="st22" d="M117.52,554.07c-1.95,0-3.75-1.28-4.32-3.24c-0.69-2.39,0.68-4.88,3.06-5.58c0.11-0.03,0.22-0.07,0.33-0.1
		c2.37-0.77,4.9,0.53,5.67,2.89c0.77,2.36-0.53,4.9-2.89,5.67c-0.2,0.06-0.39,0.12-0.59,0.18
		C118.36,554.01,117.94,554.07,117.52,554.07z M100.46,548.25c-1.39,0-2.75-0.64-3.64-1.84c-0.12-0.17-0.24-0.34-0.36-0.51
		c-1.4-2.05-0.87-4.85,1.18-6.25c2.05-1.4,4.85-0.87,6.25,1.18c0.06,0.09,0.13,0.18,0.19,0.27c1.47,2.01,1.03,4.82-0.98,6.29
		C102.31,547.97,101.38,548.25,100.46,548.25z M128.8,539.49c-0.05,0-0.09,0-0.14,0c-2.48-0.08-4.44-2.15-4.36-4.64
		c0-0.11,0.01-0.22,0.01-0.33c0-0.03,0-0.06,0-0.08c0-2.49,2.01-4.5,4.5-4.5c2.49,0,4.5,2.01,4.5,4.5h-4.5l4.5,0.01
		c0,0.26,0,0.47-0.01,0.67C133.22,537.57,131.22,539.49,128.8,539.49z M100.41,529.83c-0.92,0-1.84-0.28-2.64-0.86
		c-2.01-1.46-2.46-4.27-1-6.28c0.12-0.16,0.24-0.33,0.36-0.49c1.52-1.97,4.34-2.34,6.31-0.82c1.97,1.52,2.34,4.34,0.82,6.31
		l-0.21,0.28C103.18,529.18,101.8,529.83,100.41,529.83z M118.38,524.24c-0.5,0-1.01-0.08-1.51-0.26c-0.11-0.04-0.22-0.07-0.33-0.11
		c-2.37-0.76-3.67-3.3-2.91-5.66c0.76-2.37,3.29-3.67,5.66-2.91c0.2,0.06,0.39,0.13,0.59,0.2c2.34,0.83,3.56,3.41,2.73,5.75
		C121.96,523.09,120.23,524.24,118.38,524.24z"/>
</g>
<g>
	<path class="st24" d="M213.98-67.95c-0.28,0-0.5-0.22-0.5-0.5v-16.3c0-0.28,0.22-0.5,0.5-0.5c0.28,0,0.5,0.22,0.5,0.5v16.3
		C214.48-68.18,214.26-67.95,213.98-67.95z"/>
</g>
</svg>
